<!DOCTYPE svg PUBLIC "-//W3C//DTD SVG 20010904//EN" "http://www.w3.org/TR/2001/REC-SVG-20010904/DTD/svg10.dtd">
<svg version="1.0" xmlns="http://www.w3.org/2000/svg" width="25px" height="25px" viewBox="0 0 640 640" preserveAspectRatio="xMidYMid meet">
<g id="layer101" fill="#b42828" stroke="none">
 <path d="M114 526 c-30 -30 -34 -41 -34 -84 0 -34 6 -57 20 -75 18 -22 20 -40 20 -156 0 -118 2 -133 20 -151 27 -27 93 -27 120 0 18 18 20 33 20 151 0 116 2 134 20 156 14 18 20 41 20 75 0 43 -4 54 -34 84 -30 30 -40 34 -86 34 -46 0 -56 -4 -86 -34z m136 -36 c24 -24 26 -68 5 -96 -8 -10 -15 -31 -15 -46 0 -21 -5 -28 -20 -28 -13 0 -20 -7 -20 -20 0 -13 7 -20 20 -20 13 0 20 -7 20 -20 0 -13 -7 -20 -20 -20 -13 0 -20 -7 -20 -20 0 -13 7 -20 20 -20 13 0 20 -7 20 -20 0 -13 -7 -20 -20 -20 -13 0 -20 -7 -20 -20 0 -12 7 -20 16 -20 21 0 12 -24 -11 -29 -36 -6 -45 26 -45 158 -1 95 -4 131 -15 145 -36 47 -3 116 55 116 17 0 39 -9 50 -20z"/>
 <path d="M440 381 c0 -23 -35 -34 -51 -15 -10 12 -15 12 -31 -2 -15 -15 -16 -20 -5 -33 18 -22 10 -51 -14 -51 -12 0 -19 -7 -19 -20 0 -13 7 -20 19 -20 24 0 32 -29 14 -51 -11 -13 -10 -18 5 -33 16 -14 21 -14 31 -2 16 19 51 8 51 -15 0 -12 7 -19 20 -19 13 0 20 7 20 19 0 24 29 32 51 14 13 -11 18 -10 33 5 14 16 14 21 2 31 -19 16 -8 51 15 51 12 0 19 7 19 20 0 13 -7 20 -19 20 -25 0 -32 30 -13 52 12 14 12 21 2 33 -16 19 -39 19 -46 1 -8 -20 -44 -7 -44 15 0 12 -7 19 -20 19 -13 0 -20 -7 -20 -19z m58 -83 c7 -7 12 -24 12 -38 0 -14 -5 -31 -12 -38 -15 -15 -61 -15 -76 0 -7 7 -12 24 -12 38 0 14 5 31 12 38 7 7 24 12 38 12 14 0 31 -5 38 -12z"/>
 </g>

</svg>