<!DOCTYPE svg PUBLIC "-//W3C//DTD SVG 20010904//EN" "http://www.w3.org/TR/2001/REC-SVG-20010904/DTD/svg10.dtd">
<svg version="1.0" xmlns="http://www.w3.org/2000/svg" width="25px" height="25px" viewBox="0 0 640 640" preserveAspectRatio="xMidYMid meet">
<g id="layer101" fill="#b42828" stroke="none">
 <path d="M112 527 c-105 -105 -104 -111 41 -255 144 -144 150 -145 255 -39 105 105 104 111 -41 255 -144 144 -150 145 -255 39z m220 -74 c54 -54 98 -102 98 -108 0 -13 -122 -135 -135 -135 -13 0 -205 192 -205 205 0 13 122 135 135 135 5 0 54 -44 107 -97z"/>
 <path d="M220 420 c-13 -13 -20 -33 -20 -60 0 -53 27 -80 80 -80 53 0 80 27 80 80 0 27 -7 47 -20 60 -13 13 -33 20 -60 20 -27 0 -47 -7 -60 -20z m85 -60 c0 -18 -6 -26 -23 -28 -13 -2 -25 3 -28 12 -10 26 4 48 28 44 17 -2 23 -10 23 -28z"/>
 <path d="M466 214 c-4 -16 -18 -30 -36 -37 -21 -8 -30 -18 -30 -34 0 -36 45 -30 86 11 42 42 47 86 10 86 -17 0 -26 -7 -30 -26z"/>
 <path d="M550 218 c0 -53 -75 -128 -127 -128 -18 0 -23 -6 -23 -25 0 -21 5 -25 32 -25 47 0 114 44 143 94 14 23 25 57 25 74 0 27 -4 32 -25 32 -19 0 -25 -5 -25 -22z"/>
 </g>

</svg>