<!DOCTYPE svg PUBLIC "-//W3C//DTD SVG 20010904//EN" "http://www.w3.org/TR/2001/REC-SVG-20010904/DTD/svg10.dtd">
<svg version="1.0" xmlns="http://www.w3.org/2000/svg" width="25px" height="25px" viewBox="0 0 640 640" preserveAspectRatio="xMidYMid meet">
<g id="layer101" fill="#b42828" stroke="none">
 <path d="M52 508 c-17 -17 -17 -399 0 -416 17 -17 519 -17 536 0 17 17 17 399 0 416 -17 17 -519 17 -536 0z m496 -40 c17 -17 17 -319 0 -336 -17 -17 -439 -17 -456 0 -17 17 -17 319 0 336 17 17 439 17 456 0z"/>
 <path d="M132 428 c-17 -17 -17 -239 0 -256 16 -16 120 -16 136 0 17 17 17 239 0 256 -7 7 -37 12 -68 12 -31 0 -61 -5 -68 -12z m106 -70 l3 -38 -40 0 c-40 0 -41 1 -41 33 0 42 7 49 45 45 27 -3 30 -7 33 -40z m0 -115 c-3 -36 -5 -38 -38 -38 -33 0 -35 2 -38 38 l-3 37 41 0 41 0 -3 -37z"/>
 <path d="M372 428 c-17 -17 -17 -239 0 -256 16 -16 120 -16 136 0 17 17 17 239 0 256 -7 7 -37 12 -68 12 -31 0 -61 -5 -68 -12z m106 -70 l3 -38 -40 0 c-40 0 -41 1 -41 33 0 42 7 49 45 45 27 -3 30 -7 33 -40z m0 -115 c-3 -36 -5 -38 -38 -38 -33 0 -35 2 -38 38 l-3 37 41 0 41 0 -3 -37z"/>
 </g>

</svg>