<!DOCTYPE svg PUBLIC "-//W3C//DTD SVG 20010904//EN" "http://www.w3.org/TR/2001/REC-SVG-20010904/DTD/svg10.dtd">
<svg version="1.0" xmlns="http://www.w3.org/2000/svg" width="25px" height="25px" viewBox="0 0 640 640" preserveAspectRatio="xMidYMid meet">
<g id="layer101" fill="#b42828" stroke="none">
 <path d="M52 548 c-17 -17 -17 -439 0 -456 17 -17 519 -17 536 0 17 17 17 439 0 456 -17 17 -519 17 -536 0z m496 -40 c17 -17 17 -359 0 -376 -17 -17 -439 -17 -456 0 -17 17 -17 359 0 376 17 17 439 17 456 0z"/>
 <path d="M285 460 c-11 -12 -31 -20 -52 -20 -31 0 -33 -2 -33 -33 0 -21 -8 -41 -20 -52 -11 -10 -20 -26 -20 -35 0 -9 9 -25 20 -35 12 -11 20 -31 20 -52 0 -31 2 -33 33 -33 21 0 41 -8 52 -20 10 -11 26 -20 35 -20 9 0 25 9 35 20 11 12 31 20 52 20 31 0 33 2 33 33 0 21 8 41 20 52 25 23 25 47 0 70 -12 11 -20 31 -20 52 0 31 -2 33 -33 33 -21 0 -41 8 -52 20 -10 11 -26 20 -35 20 -9 0 -25 -9 -35 -20z m87 -60 c24 0 28 -4 28 -28 0 -15 5 -33 12 -40 9 -9 9 -15 0 -24 -7 -7 -12 -25 -12 -40 0 -24 -4 -28 -28 -28 -15 0 -33 -5 -40 -12 -9 -9 -12 11 -12 92 0 81 3 101 12 92 7 -7 25 -12 40 -12z"/>
 </g>

</svg>