<!DOCTYPE svg PUBLIC "-//W3C//DTD SVG 20010904//EN" "http://www.w3.org/TR/2001/REC-SVG-20010904/DTD/svg10.dtd">
<svg version="1.0" xmlns="http://www.w3.org/2000/svg" width="25px" height="25px" viewBox="0 0 640 640" preserveAspectRatio="xMidYMid meet">
<g id="layer101" fill="#424141" stroke="none">
 <path d="M485 520 l-39 -40 -207 0 c-175 0 -210 -2 -223 -16 -13 -12 -16 -40 -16 -144 0 -150 5 -160 77 -160 l46 0 -23 -25 c-23 -24 -23 -26 -7 -43 16 -16 30 -4 244 210 196 196 225 229 214 242 -19 22 -22 21 -66 -24z m-200 -200 c-119 -119 -120 -120 -167 -120 -69 0 -78 14 -78 120 0 124 -7 120 198 120 l167 0 -120 -120z"/>
 <path d="M524 448 c-5 -7 -7 -58 -5 -114 4 -134 4 -134 -138 -134 -95 0 -110 -2 -126 -20 -18 -20 -17 -20 128 -20 158 0 177 6 177 55 0 20 6 24 38 27 l37 3 0 75 0 75 -37 3 c-31 3 -37 7 -40 29 -3 30 -22 41 -34 21z m76 -128 c0 -33 -3 -40 -20 -40 -17 0 -20 7 -20 40 0 33 3 40 20 40 17 0 20 -7 20 -40z"/>
 </g>

</svg>