<!DOCTYPE svg PUBLIC "-//W3C//DTD SVG 20010904//EN" "http://www.w3.org/TR/2001/REC-SVG-20010904/DTD/svg10.dtd">
<svg version="1.0" xmlns="http://www.w3.org/2000/svg" width="130px" height="130px" viewBox="0 0 2000 2000" preserveAspectRatio="xMidYMid meet">
<g id="layer101" fill="#C02942" stroke="none">
 <path d="M1020 1861 c-21 -41 16 -71 88 -71 129 -1 312 -99 412 -223 80 -98 161 -276 160 -351 -1 -19 -3 -18 -28 10 -15 17 -34 34 -43 37 -21 7 -59 -19 -59 -41 0 -20 153 -217 175 -225 30 -12 47 7 101 114 56 112 64 148 39 169 -21 18 -47 8 -70 -26 l-21 -31 -22 85 c-85 329 -364 571 -659 572 -51 0 -64 -3 -73 -19z"/>
 <path d="M861 1541 c-6 -11 -11 -40 -11 -65 0 -42 -2 -45 -31 -51 -26 -6 -36 -2 -63 24 -51 49 -71 43 -164 -53 -45 -46 -82 -89 -82 -95 0 -6 16 -29 36 -51 33 -37 36 -44 28 -73 -9 -30 -12 -32 -64 -35 -75 -4 -80 -13 -80 -140 0 -134 4 -142 80 -142 56 0 59 -1 65 -29 5 -24 -1 -38 -29 -76 -20 -26 -36 -52 -36 -58 0 -15 173 -187 188 -187 7 0 30 16 52 36 33 30 44 35 70 29 28 -6 30 -9 30 -56 0 -78 18 -89 139 -89 139 0 149 5 153 77 3 55 4 58 35 67 29 8 36 5 73 -28 22 -20 45 -36 51 -36 6 0 49 37 95 82 97 94 102 111 50 173 -28 33 -32 43 -23 62 8 18 18 23 48 23 21 0 49 4 64 10 l26 10 -3 132 -3 133 -60 3 c-59 3 -61 4 -71 37 -10 32 -9 36 23 67 51 50 46 71 -45 161 -89 88 -109 94 -159 45 -29 -28 -36 -30 -65 -22 -32 9 -33 12 -38 69 l-5 60 -132 3 c-122 2 -133 1 -142 -17z m189 -104 c0 -57 14 -73 85 -95 33 -11 67 -23 76 -26 11 -5 29 4 54 25 l36 32 36 -36 36 -36 -32 -36 c-20 -23 -30 -43 -26 -53 3 -9 16 -46 28 -82 l23 -65 52 -3 52 -3 0 -59 0 -59 -52 -3 -51 -3 -29 -70 -28 -70 30 -43 c16 -23 30 -46 30 -50 0 -5 -16 -23 -35 -42 l-35 -34 -28 27 c-34 32 -47 33 -132 7 -76 -24 -90 -39 -90 -97 l0 -43 -55 0 -55 0 0 55 c0 62 3 59 -97 89 -70 22 -82 20 -115 -11 l-28 -27 -39 38 -40 39 31 38 c34 42 34 58 1 144 l-19 50 -57 3 -57 3 0 59 0 60 55 0 c62 0 59 -3 89 97 22 70 20 82 -11 115 l-27 28 36 37 37 36 36 -31 c19 -18 37 -32 38 -32 1 1 38 13 82 28 l80 28 3 57 3 57 54 0 55 0 0 -43z"/>
 <path d="M895 1222 c-85 -41 -137 -125 -137 -222 0 -141 99 -240 242 -240 82 0 134 23 183 80 47 56 60 97 55 180 -4 81 -35 135 -107 185 -37 26 -53 30 -119 33 -59 2 -86 -2 -117 -16z m183 -92 c96 -59 96 -200 0 -261 -26 -16 -45 -19 -91 -16 -49 3 -62 8 -91 36 -101 98 -35 261 104 261 27 0 58 -8 78 -20z"/>
 <path d="M170 880 c-32 -67 -56 -128 -53 -136 8 -20 38 -35 58 -28 8 4 23 20 32 38 l16 31 18 -78 c78 -331 358 -582 649 -582 l85 0 0 35 c0 39 3 38 -140 59 -109 16 -222 77 -316 171 -63 63 -85 94 -128 181 -29 58 -57 134 -65 172 l-14 68 38 -41 c40 -44 43 -45 71 -30 37 20 23 59 -58 163 -65 83 -80 97 -105 97 -27 0 -32 -8 -88 -120z"/>
 </g>

</svg>