<!DOCTYPE svg PUBLIC "-//W3C//DTD SVG 20010904//EN" "http://www.w3.org/TR/2001/REC-SVG-20010904/DTD/svg10.dtd">
<svg version="1.0" xmlns="http://www.w3.org/2000/svg" width="130px" height="130px" viewBox="0 0 2000 2000" preserveAspectRatio="xMidYMid meet">
<g id="layer101" fill="#C5E0DC" stroke="none">
 <path d="M287 1723 c-4 -3 -7 -82 -7 -175 l0 -169 23 3 c21 3 22 8 27 126 l5 122 255 -255 c140 -140 261 -255 268 -255 7 0 15 7 19 16 4 11 -68 90 -258 280 l-264 264 132 0 c133 0 157 6 133 35 -10 12 -44 15 -170 15 -86 0 -160 -3 -163 -7z"/>
 <path d="M1387 1723 c-4 -3 -7 -15 -7 -25 0 -17 11 -18 132 -18 l133 0 -263 -263 c-144 -144 -262 -268 -262 -275 0 -7 7 -15 16 -19 11 -4 90 68 280 258 l264 264 0 -132 c0 -102 3 -132 14 -136 30 -12 36 16 36 173 0 108 -4 160 -12 168 -13 13 -319 18 -331 5z"/>
 <path d="M587 623 l-257 -258 0 121 c0 97 -3 124 -15 134 -10 8 -19 10 -25 4 -5 -5 -10 -83 -11 -174 l-1 -165 171 -3 c163 -2 171 -2 171 17 0 27 -18 31 -143 31 l-112 0 259 259 c186 186 257 264 253 275 -4 9 -12 16 -19 16 -7 0 -129 -116 -271 -257z"/>
 <path d="M1126 863 c-5 -13 56 -80 251 -275 l258 -258 -121 0 c-97 0 -124 -3 -134 -15 -8 -10 -10 -19 -4 -25 10 -10 327 -15 343 -5 12 7 16 291 5 319 -3 9 -15 16 -25 16 -18 0 -19 -9 -19 -132 l0 -133 -263 263 c-144 144 -267 262 -273 262 -7 0 -15 -8 -18 -17z"/>
 </g>

</svg>