<!DOCTYPE svg PUBLIC "-//W3C//DTD SVG 20010904//EN" "http://www.w3.org/TR/2001/REC-SVG-20010904/DTD/svg10.dtd">
<svg version="1.0" xmlns="http://www.w3.org/2000/svg" width="130px" height="130px" viewBox="0 0 2000 2000" preserveAspectRatio="xMidYMid meet">
<g id="layer101" fill="#ECD078" stroke="none">
 <path d="M809 1810 c-28 -33 -50 -50 -65 -50 -12 0 -32 -12 -43 -26 -19 -24 -21 -40 -21 -179 0 -140 2 -155 21 -179 18 -23 21 -37 18 -110 l-4 -83 -91 -135 c-50 -74 -102 -161 -114 -194 -32 -81 -39 -246 -15 -330 47 -165 169 -296 330 -356 86 -32 264 -32 350 0 117 43 229 139 284 241 50 95 64 160 59 280 -5 135 -26 186 -144 362 l-89 132 -3 82 c-4 73 -1 87 18 113 20 27 21 38 18 184 -3 137 -5 159 -22 177 -11 12 -29 21 -41 21 -14 0 -37 18 -64 50 l-42 50 -149 0 -149 0 -42 -50z m339 -27 l14 -23 -161 0 c-167 0 -167 0 -138 38 7 9 43 12 140 10 122 -3 130 -4 145 -25z m120 -104 l3 -25 -203 22 c-112 13 -214 25 -228 27 -14 2 76 4 200 3 l225 -1 3 -26z m-243 -27 c231 -26 240 -28 243 -50 4 -27 20 -28 -251 3 -293 33 -287 32 -287 55 0 25 -3 25 295 -8z m-7 -77 c123 -14 229 -25 237 -25 9 0 15 -10 15 -26 0 -24 -2 -25 -42 -19 -66 9 -471 55 -485 55 -7 0 -13 11 -13 25 0 24 3 25 33 20 17 -3 132 -17 255 -30z m-50 -70 c323 -37 302 -33 302 -59 l0 -22 -270 30 c-265 30 -270 31 -270 53 0 13 5 23 10 23 6 0 108 -11 228 -25z m17 -80 l190 -23 -220 2 -220 1 -3 23 c-4 28 4 28 253 -3z m245 -147 c1 -97 12 -124 113 -275 103 -154 130 -223 129 -338 -2 -414 -492 -629 -793 -348 -101 94 -150 207 -151 343 -1 120 24 186 129 343 101 151 112 178 113 275 l0 72 230 0 230 0 0 -72z"/>
 <path d="M1406 642 c-54 -182 -197 -328 -373 -379 -35 -10 -63 -21 -63 -25 0 -22 141 7 217 44 126 62 230 209 241 344 2 35 2 64 -1 64 -4 0 -13 -22 -21 -48z"/>
 </g>

</svg>