<!DOCTYPE svg PUBLIC "-//W3C//DTD SVG 20010904//EN" "http://www.w3.org/TR/2001/REC-SVG-20010904/DTD/svg10.dtd">
<svg version="1.0" xmlns="http://www.w3.org/2000/svg" width="130px" height="130px" viewBox="0 0 2000 2000" preserveAspectRatio="xMidYMid meet">
<g id="layer101" fill="#ECD078" stroke="none">
 <path d="M834 1900 c-71 -13 -214 -59 -214 -69 0 -7 85 -205 96 -223 2 -3 28 2 57 12 178 63 367 46 537 -48 84 -46 206 -168 253 -252 58 -106 82 -198 82 -320 0 -183 -61 -328 -194 -461 -240 -240 -593 -263 -867 -56 -213 162 -307 469 -219 717 43 123 49 108 -63 168 -55 28 -104 52 -111 52 -16 0 -47 -67 -78 -167 -24 -80 -26 -103 -27 -248 0 -135 4 -173 22 -240 70 -252 248 -468 477 -580 123 -61 224 -86 370 -92 271 -11 502 82 692 280 129 134 205 286 238 474 80 459 -209 913 -660 1033 -91 24 -306 35 -391 20z"/>
 <path d="M411 1642 c-68 -37 -91 -129 -48 -193 60 -90 181 -88 237 4 55 89 -14 207 -120 207 -19 0 -51 -8 -69 -18z"/>
 <path d="M877 1449 c-153 -36 -291 -170 -332 -323 -23 -86 -17 -218 15 -299 41 -108 150 -216 260 -258 70 -27 199 -36 271 -19 353 83 480 520 225 776 -110 110 -286 159 -439 123z m219 -274 c52 -30 91 -93 100 -158 13 -95 -72 -204 -175 -223 -80 -15 -175 35 -219 117 -20 37 -23 54 -19 103 7 79 43 131 117 169 67 35 128 32 196 -8z"/>
 </g>

</svg>