<!DOCTYPE svg PUBLIC "-//W3C//DTD SVG 20010904//EN" "http://www.w3.org/TR/2001/REC-SVG-20010904/DTD/svg10.dtd">
<svg version="1.0" xmlns="http://www.w3.org/2000/svg" width="130px" height="130px" viewBox="0 0 2000 2000" preserveAspectRatio="xMidYMid meet">
<g id="layer101" fill="#C5E0DC" stroke="none">
 <path d="M539 1727 c-98 -65 -85 -208 23 -251 127 -52 242 74 182 200 -34 72 -136 97 -205 51z m142 -56 c49 -49 30 -129 -34 -150 -79 -27 -151 54 -113 127 31 61 99 71 147 23z"/>
 <path d="M576 1644 c-9 -8 -16 -24 -16 -35 0 -24 34 -59 58 -59 41 0 69 69 40 98 -17 17 -64 15 -82 -4z"/>
 <path d="M1360 1743 c-8 -3 -26 -15 -38 -27 -102 -92 -43 -250 93 -250 139 0 195 156 91 253 -19 18 -39 25 -78 27 -29 2 -60 1 -68 -3z m121 -72 c38 -39 39 -80 0 -123 -41 -46 -92 -45 -133 1 -25 28 -29 39 -24 70 12 79 101 108 157 52z"/>
 <path d="M1376 1644 c-25 -24 -20 -61 10 -81 24 -15 29 -15 53 -2 49 27 35 99 -19 99 -16 0 -36 -7 -44 -16z"/>
 <path d="M413 1533 c-36 -13 7 -84 71 -118 l36 -20 0 -290 c0 -309 8 -397 41 -486 24 -66 73 -129 100 -129 27 0 24 24 -11 72 -17 23 -40 71 -52 107 -20 62 -22 89 -26 418 l-4 351 -25 7 c-13 3 -46 25 -71 49 -26 24 -53 41 -59 39z"/>
 <path d="M1549 1513 c-55 -58 -52 -58 -464 -63 l-380 -5 -3 -562 c-2 -524 -3 -562 -20 -567 -9 -2 -45 -8 -79 -11 -65 -7 -96 -26 -75 -47 14 -14 188 6 209 24 10 8 13 122 13 564 l0 554 348 0 c214 0 362 4 385 11 45 12 117 73 117 99 0 29 -26 31 -51 3z"/>
 <path d="M785 1358 c-3 -7 -4 -206 -3 -443 l3 -430 180 0 180 0 3 113 3 112 64 0 65 0 0 150 0 149 68 3 67 3 0 175 0 175 -313 3 c-245 2 -314 0 -317 -10z m585 -168 l0 -130 -270 0 -270 0 0 130 0 130 270 0 270 0 0 -130z m-140 -305 l0 -125 -200 0 -200 0 0 125 0 125 200 0 200 0 0 -125z m-130 -265 l0 -90 -135 0 -135 0 0 90 0 90 135 0 135 0 0 -90z"/>
 </g>

</svg>