<!DOCTYPE svg PUBLIC "-//W3C//DTD SVG 20010904//EN" "http://www.w3.org/TR/2001/REC-SVG-20010904/DTD/svg10.dtd">
<svg version="1.0" xmlns="http://www.w3.org/2000/svg" width="19px" height="19px" viewBox="0 0 2000 2000" preserveAspectRatio="xMidYMid meet">
<g id="layer101" fill="#949494" stroke="none">
 <path d="M1498 1929 c-18 -7 -48 -43 -94 -115 -37 -58 -76 -110 -88 -115 -12 -5 -88 -22 -171 -39 -82 -17 -164 -35 -182 -41 -78 -25 -123 -93 -123 -187 0 -64 11 -82 51 -82 40 0 59 24 59 75 0 75 12 82 220 126 102 21 195 41 207 44 14 3 46 39 85 98 l62 92 14 -63 c17 -78 32 -88 108 -72 62 13 107 2 124 -31 6 -10 32 -123 59 -252 63 -304 64 -299 -99 -332 -47 -9 -91 -22 -97 -27 -22 -18 -15 -66 11 -83 23 -15 32 -15 123 5 58 12 113 31 135 45 50 33 78 90 78 157 0 68 -85 480 -110 535 -28 61 -85 96 -166 101 l-63 4 -12 59 c-17 84 -67 122 -131 98z"/>
 <path d="M570 1553 c-36 -13 -60 -48 -70 -102 -6 -31 -16 -72 -21 -92 l-9 -36 -46 8 c-96 18 -204 -32 -252 -118 -27 -49 -153 -641 -153 -720 -1 -92 56 -180 139 -217 20 -9 244 -59 497 -112 525 -109 560 -112 637 -58 85 60 91 74 169 453 68 327 71 346 60 398 -16 68 -63 130 -121 160 -27 14 -141 42 -289 73 -135 28 -246 52 -247 53 0 1 -44 68 -96 148 -78 120 -101 148 -128 158 -35 12 -47 13 -70 4z m224 -401 c6 -6 131 -37 276 -67 163 -34 275 -62 290 -73 14 -10 34 -36 44 -57 l19 -38 -62 -301 c-35 -166 -68 -318 -74 -339 -15 -55 -67 -97 -120 -97 -49 0 -930 183 -970 201 -35 16 -69 71 -69 112 0 37 117 609 133 649 29 72 90 94 195 71 97 -21 105 -14 129 105 9 48 19 91 22 96 3 4 44 -50 90 -120 46 -71 90 -135 97 -142z"/>
 <path d="M482 988 c-14 -14 -16 -57 -4 -76 5 -7 106 -33 227 -58 246 -52 265 -51 265 10 0 18 -6 38 -12 44 -15 11 -395 92 -436 92 -16 0 -33 -5 -40 -12z"/>
 <path d="M452 804 c-25 -17 -30 -65 -8 -83 16 -13 559 -130 615 -133 35 -1 61 20 61 52 0 44 -19 50 -335 116 -171 35 -310 64 -310 64 0 0 -11 -7 -23 -16z"/>
 <path d="M402 618 c-16 -16 -15 -73 1 -86 13 -11 582 -132 621 -132 13 0 29 7 36 15 15 18 16 63 2 77 -10 10 -588 137 -627 138 -12 0 -26 -5 -33 -12z"/>
 </g>

</svg>