<!DOCTYPE svg PUBLIC "-//W3C//DTD SVG 20010904//EN" "http://www.w3.org/TR/2001/REC-SVG-20010904/DTD/svg10.dtd">
<svg version="1.0" xmlns="http://www.w3.org/2000/svg" width="30px" height="30px" viewBox="0 0 2000 2000" preserveAspectRatio="xMidYMid meet">
<g id="layer101" fill="#ffffff" stroke="none">
 <path d="M670 1761 c-257 -20 -393 -141 -431 -381 -7 -44 -9 -204 -7 -432 3 -348 5 -366 26 -427 51 -141 141 -225 287 -269 39 -11 128 -16 393 -19 368 -5 471 2 569 39 69 27 158 107 196 177 51 93 58 160 58 551 0 195 -5 378 -10 405 -37 191 -146 303 -331 345 -65 14 -607 22 -750 11z m673 -150 c135 -18 217 -81 253 -195 21 -66 32 -569 16 -726 -13 -119 -28 -163 -74 -215 -77 -88 -133 -97 -578 -93 -307 3 -361 6 -401 21 -66 25 -114 70 -146 135 -27 55 -28 63 -33 259 -3 112 -3 292 0 400 5 179 8 203 29 250 42 95 115 146 235 163 72 11 618 11 699 1z"/>
 <path d="M846 1366 c-111 -47 -190 -133 -227 -248 -92 -287 162 -569 456 -508 124 26 226 105 282 217 26 53 28 67 28 168 0 98 -3 116 -27 167 -37 80 -107 152 -187 191 -59 29 -76 32 -166 35 -88 2 -107 -1 -159 -22z m220 -131 c140 -41 214 -198 159 -333 -21 -52 -100 -124 -153 -140 -89 -27 -193 0 -254 64 -103 110 -86 290 36 372 79 53 130 62 212 37z"/>
 <path d="M1358 674 c-34 -18 -48 -43 -48 -84 0 -45 16 -70 57 -86 66 -28 133 14 133 84 0 46 -16 71 -55 88 -42 17 -53 17 -87 -2z"/>
 </g>

</svg>