<!DOCTYPE svg PUBLIC "-//W3C//DTD SVG 20010904//EN" "http://www.w3.org/TR/2001/REC-SVG-20010904/DTD/svg10.dtd">
<svg version="1.0" xmlns="http://www.w3.org/2000/svg" width="30px" height="30px" viewBox="0 0 2000 2000" preserveAspectRatio="xMidYMid meet">
<g id="layer101" fill="#ffffff" stroke="none">
 <path d="M1374 1657 c-27 -18 -120 -86 -207 -150 l-157 -117 -109 105 c-96 92 -114 105 -144 105 -20 0 -40 -7 -48 -17 -8 -9 -48 -120 -89 -247 l-76 -230 -193 -61 c-148 -46 -197 -65 -208 -82 -19 -29 -10 -68 20 -87 37 -24 1534 -586 1560 -586 34 0 57 30 57 74 0 38 -231 1202 -251 1263 -22 69 -81 81 -155 30z m-599 -408 l6 -56 350 -314 c315 -282 397 -365 327 -328 -32 17 -821 510 -832 520 -6 5 16 89 55 211 l64 203 11 -90 c7 -50 15 -115 19 -146z"/>
 </g>

</svg>