<!DOCTYPE svg PUBLIC "-//W3C//DTD SVG 20010904//EN" "http://www.w3.org/TR/2001/REC-SVG-20010904/DTD/svg10.dtd">
<svg version="1.0" xmlns="http://www.w3.org/2000/svg" width="30px" height="30px" viewBox="0 0 2000 2000" preserveAspectRatio="xMidYMid meet">
<g id="layer101" fill="#ffffff" stroke="none">
 <path d="M1530 1570 c-29 -13 -83 -60 -150 -130 -81 -84 -112 -110 -131 -110 -46 0 -71 50 -83 159 -9 86 -18 91 -160 91 -144 0 -209 -14 -321 -70 -87 -43 -176 -114 -250 -200 -88 -103 -224 -321 -325 -521 -103 -205 -116 -249 -81 -269 21 -11 338 -14 365 -4 9 3 45 65 80 138 72 149 173 305 216 336 42 30 65 15 79 -50 13 -61 14 -240 2 -293 -11 -47 -44 -84 -82 -92 -35 -8 -37 -24 -6 -53 35 -33 113 -45 271 -40 219 5 221 8 211 268 -10 235 6 291 70 262 48 -22 173 -215 240 -368 53 -123 33 -114 266 -114 119 0 208 4 220 10 25 14 25 61 0 117 -21 46 -106 176 -157 238 -79 99 -144 199 -144 222 0 19 32 59 129 157 135 137 191 213 191 255 -1 60 -27 69 -231 76 -163 6 -177 5 -219 -15z"/>
 </g>

</svg>