<!DOCTYPE svg PUBLIC "-//W3C//DTD SVG 20010904//EN" "http://www.w3.org/TR/2001/REC-SVG-20010904/DTD/svg10.dtd">
<svg version="1.0" xmlns="http://www.w3.org/2000/svg" width="328px" height="306px" viewBox="0 0 3280 3060" preserveAspectRatio="xMidYMid meet">
<g id="layer101" fill="#d22323" stroke="none">
<path d="M213 2839 c-43 -27 -45 -49 -41 -371 l3 -266 25 -27 c29 -32 78 -55 115 -55 29 0 29 -10 10 155 -18 161 -18 165 -1 165 24 0 94 -89 112 -143 39 -115 16 -250 -47 -282 -62 -32 -156 -6 -199 56 -35 48 -61 145 -61 225 0 45 -5 77 -13 83 -16 14 -58 1 -90 -26 -22 -19 -26 -31 -26 -77 0 -90 33 -177 91 -240 72 -78 138 -109 237 -109 90 0 149 21 199 71 50 51 66 106 61 216 -4 87 -7 99 -40 153 -20 33 -54 71 -79 88 l-44 30 33 30 c44 40 71 120 72 211 0 66 -3 75 -29 103 -36 39 -87 45 -75 9 4 -13 7 -59 6 -104 0 -115 -41 -198 -108 -218 -20 -6 -21 -2 -27 115 -4 67 -7 146 -7 176 0 48 -2 53 -22 53 -13 0 -37 -10 -55 -21z"/>
<path d="M659 2707 c-125 -84 -125 -320 0 -404 81 -55 194 -12 194 73 0 71 -46 114 -125 117 -40 2 -47 21 -36 92 9 59 46 100 81 89 71 -21 131 -105 141 -197 8 -71 28 -123 63 -159 45 -47 90 -54 164 -23 14 5 17 -9 21 -125 4 -120 7 -132 29 -156 28 -31 77 -54 114 -54 29 0 29 -9 10 148 -8 68 -17 185 -20 260 -3 75 -8 166 -10 202 l-5 65 21 -25 c12 -14 32 -46 45 -72 24 -47 54 -64 54 -32 0 27 -69 149 -103 181 -45 43 -71 49 -97 23 -19 -19 -24 -20 -38 -7 -61 53 -185 5 -223 -84 l-11 -29 -28 44 c-56 88 -168 122 -241 73z m493 -77 c13 -29 15 -53 9 -148 -10 -153 -35 -179 -95 -98 -29 38 -31 217 -3 260 26 39 66 33 89 -14z m-374 -196 c44 -31 53 -94 13 -94 -25 0 -91 76 -91 104 0 12 57 5 78 -10z"/>
</g>
<g id="layer102" fill="#ffffff" stroke="none">
<path d="M2877 3049 c-33 -20 -47 -66 -52 -176 -3 -59 -8 -137 -11 -172 l-6 -64 -36 42 c-46 51 -86 62 -124 32 -38 -30 -52 -108 -44 -239 3 -62 2 -101 -3 -97 -16 9 -41 97 -51 184 -14 110 -22 123 -67 119 -26 -2 -42 -11 -57 -31 -18 -25 -20 -41 -20 -152 1 -68 -2 -122 -7 -120 -24 16 -58 191 -59 308 0 53 -2 57 -24 57 -38 0 -72 -35 -85 -86 l-12 -47 -32 46 c-54 77 -108 96 -152 53 -20 -20 -26 -22 -35 -11 -18 22 -77 37 -111 30 -67 -15 -128 -97 -144 -192 -8 -53 17 -156 50 -199 49 -64 131 -80 193 -36 27 20 27 20 62 -4 22 -15 49 -24 73 -24 l39 0 -6 53 c-3 28 -9 113 -12 187 -7 135 -7 135 13 110 49 -64 54 -81 59 -176 2 -51 9 -102 16 -113 17 -27 62 -51 97 -51 26 0 31 4 31 25 l0 24 25 -24 c19 -20 34 -25 74 -25 44 0 53 4 72 29 l22 30 28 -30 c25 -27 33 -30 80 -27 44 3 55 8 73 31 19 26 21 39 18 173 -2 79 -1 144 2 144 3 0 17 -20 32 -45 20 -36 27 -62 31 -127 6 -115 15 -133 79 -164 58 -29 84 -27 84 7 0 20 1 20 31 -5 71 -60 156 -13 179 99 12 56 9 147 -6 191 -10 33 34 -27 48 -63 7 -21 19 -33 30 -33 25 0 23 12 -14 86 -39 78 -62 104 -90 104 -12 0 -32 9 -44 21 -32 30 -93 36 -122 12 -36 -28 -41 -92 -11 -127 21 -24 27 -26 51 -17 25 10 28 8 35 -17 5 -15 8 -64 8 -109 0 -64 -4 -86 -17 -99 -15 -16 -18 -15 -41 10 -13 14 -32 50 -41 78 -19 64 -38 337 -34 503 l3 120 -25 2 c-14 2 -33 -2 -43 -8z m-899 -402 c20 -19 22 -29 22 -142 0 -128 -11 -165 -49 -165 -40 0 -80 80 -81 161 0 84 44 189 74 172 6 -3 21 -15 34 -26z m1057 -17 c0 -7 -6 -15 -12 -17 -8 -3 -13 4 -13 17 0 13 5 20 13 18 6 -3 12 -11 12 -18z"/>
<path d="M1445 2847 c-15 -12 -17 -19 -9 -27 8 -8 6 -21 -7 -48 -16 -31 -19 -60 -19 -198 0 -152 19 -401 39 -526 13 -79 35 -116 74 -126 48 -14 55 2 44 90 -14 110 -15 734 -1 748 14 14 51 -3 138 -64 57 -39 58 -40 73 -21 18 25 10 71 -18 101 -52 55 -270 104 -314 71z"/>
<path d="M1624 1827 c-3 -8 -4 -36 -2 -63 3 -47 4 -49 33 -49 l30 0 0 60 c0 58 -1 60 -28 63 -17 2 -29 -2 -33 -11z"/>
<path d="M1377 1763 c-26 -25 29 -126 65 -121 39 6 44 31 14 82 -19 33 -33 46 -50 46 -12 0 -26 -3 -29 -7z"/>
<path d="M1894 1705 c-21 -29 -25 -41 -17 -53 17 -28 46 -25 77 7 35 37 33 75 -6 79 -20 2 -32 -5 -54 -33z"/>
<path d="M1593 1600 c-127 -26 -215 -121 -230 -250 l-6 -50 -228 0 c-263 0 -252 4 -238 -94 21 -152 140 -296 316 -382 l102 -49 1 -46 c1 -102 55 -207 133 -258 l37 -24 0 -224 0 -223 35 0 35 0 0 210 0 210 55 0 55 0 0 -65 c0 -50 4 -67 15 -71 11 -5 13 -10 5 -19 -6 -7 -11 -33 -11 -57 0 -23 -2 -80 -5 -125 l-6 -83 41 0 41 0 0 78 c0 43 -5 83 -11 89 -8 8 -8 13 0 17 17 11 13 57 -6 78 -9 11 -11 18 -5 18 8 0 12 25 12 75 0 74 0 75 33 91 102 53 166 151 171 263 l2 63 64 27 c151 63 266 164 325 285 39 78 54 160 36 194 -11 21 -17 22 -215 22 l-203 0 -7 55 c-8 73 -24 105 -51 105 -18 0 -21 5 -17 29 3 23 -1 30 -17 36 -28 8 -53 -12 -49 -39 2 -13 12 -22 26 -24 16 -3 22 -8 18 -19 -4 -8 1 -35 9 -59 30 -88 37 -84 -150 -84 l-165 0 0 33 c0 18 7 42 15 53 19 25 19 48 0 64 -35 29 -84 -28 -88 -105 -1 -26 -7 -45 -13 -45 -33 0 -20 83 23 143 54 77 148 104 258 75 52 -14 71 -4 61 35 -4 17 -16 27 -43 35 -60 17 -115 21 -160 12z m695 -407 c-39 -143 -154 -258 -330 -329 -107 -43 -106 -42 -100 -122 3 -46 0 -78 -10 -102 -63 -151 -255 -198 -378 -92 -70 59 -101 145 -80 221 14 52 6 63 -52 80 -136 40 -286 158 -338 265 -16 33 -32 73 -36 89 l-6 27 670 0 670 0 -10 -37z"/>
<path d="M2112 1116 c-43 -47 -46 -53 -36 -80 18 -48 129 35 122 92 -5 45 -38 40 -86 -12z"/>
<path d="M2005 1021 c-6 -6 -46 -30 -90 -53 -43 -24 -80 -48 -82 -53 -2 -6 3 -19 11 -30 12 -17 18 -18 52 -7 22 6 68 29 104 50 57 33 65 41 65 67 0 25 -5 31 -25 33 -14 2 -30 -2 -35 -7z"/>
<path d="M1422 808 c-18 -18 -14 -46 8 -58 10 -5 52 -13 92 -16 62 -6 76 -4 88 11 22 27 0 49 -56 57 -27 4 -65 9 -85 12 -21 3 -40 1 -47 -6z"/>
<path d="M1644 786 c-12 -31 0 -51 31 -51 27 0 30 3 30 30 0 25 -4 30 -28 33 -17 2 -29 -2 -33 -12z"/>
<path d="M1202 1578 c-23 -23 -13 -47 28 -68 51 -26 87 -26 95 0 9 27 -1 39 -49 61 -49 22 -58 23 -74 7z"/>
<path d="M2052 1523 c-38 -13 -43 -18 -40 -42 4 -31 28 -37 87 -21 43 11 61 41 41 65 -15 18 -33 18 -88 -2z"/>
<path d="M1593 1503 c-19 -7 -16 -60 3 -67 22 -8 54 11 54 32 0 32 -26 48 -57 35z"/>
</g>


</svg>