<!DOCTYPE svg PUBLIC "-//W3C//DTD SVG 20010904//EN" "http://www.w3.org/TR/2001/REC-SVG-20010904/DTD/svg10.dtd">
<svg version="1.0" xmlns="http://www.w3.org/2000/svg" width="310px" height="148px" viewBox="0 0 3100 1480" preserveAspectRatio="xMidYMid meet">
<g id="layer101" fill="#d22323" stroke="none">
<path d="M899 651 c-23 -19 -24 -24 -27 -188 -5 -261 6 -299 92 -319 l29 -7 -7 89 c-4 49 -10 105 -13 124 l-6 34 24 -15 c36 -24 67 -74 80 -133 15 -70 5 -122 -32 -159 -25 -24 -35 -28 -62 -23 -76 15 -124 88 -134 205 -5 64 -8 71 -28 71 -35 0 -65 -36 -65 -79 0 -52 25 -121 60 -163 88 -107 282 -105 344 2 32 55 29 162 -7 223 -15 26 -43 57 -62 70 -32 22 -33 23 -14 36 32 19 59 89 59 152 0 45 -4 60 -23 77 -42 39 -52 30 -49 -44 5 -83 -18 -148 -58 -169 l-27 -14 -7 46 c-3 25 -6 81 -6 124 0 71 -2 79 -19 79 -10 0 -29 -9 -42 -19z"/>
<path d="M1774 658 c-4 -6 -2 -14 5 -16 9 -3 8 -9 -5 -23 -12 -13 -19 -43 -22 -95 l-5 -77 -22 37 c-46 77 -92 105 -122 75 -8 -8 -13 -8 -17 0 -11 17 -89 13 -115 -5 -12 -9 -31 -30 -41 -46 l-18 -29 -21 34 c-23 37 -73 67 -113 67 -12 0 -37 -9 -54 -19 -80 -49 -87 -209 -12 -279 59 -54 148 -28 148 43 0 47 -27 75 -79 82 l-43 6 6 46 c3 25 15 54 25 65 17 17 23 18 51 6 43 -18 81 -78 87 -137 6 -57 24 -94 59 -122 29 -23 64 -27 93 -11 17 8 19 2 24 -80 3 -49 10 -97 16 -108 10 -20 89 -57 99 -48 3 3 0 56 -6 118 -6 62 -15 169 -18 237 -8 131 -2 145 32 78 9 -18 25 -40 35 -50 15 -14 19 -32 19 -80 0 -94 27 -276 45 -303 9 -14 25 -24 39 -24 l23 0 -4 283 c-3 155 -1 292 4 304 l8 22 50 -29 c28 -17 58 -36 68 -43 14 -10 19 -9 27 3 15 23 12 37 -12 65 -42 47 -213 87 -234 53z m-198 -151 c11 -32 4 -180 -8 -194 -37 -44 -84 50 -71 142 10 76 61 108 79 52z m-261 -152 c29 -28 31 -43 10 -51 -19 -8 -42 11 -61 48 -14 26 -13 28 6 28 12 0 32 -11 45 -25z"/>
</g>
<g id="layer102" fill="#ffffff" stroke="none">
<path d="M556 1464 c-17 -44 6 -93 37 -81 16 6 29 59 21 82 -8 20 -50 19 -58 -1z"/>
<path d="M370 1415 c-10 -12 -8 -21 15 -51 45 -59 89 -25 45 36 -24 33 -41 38 -60 15z"/>
<path d="M772 1387 c-44 -46 -12 -90 34 -47 27 27 31 55 8 64 -21 8 -18 9 -42 -17z"/>
<path d="M495 1286 c-79 -37 -135 -112 -135 -181 l0 -25 -163 0 c-191 0 -204 -4 -194 -66 19 -115 122 -238 252 -301 62 -29 70 -36 67 -58 -7 -49 25 -128 69 -173 23 -23 46 -42 51 -42 4 0 8 -76 8 -170 l0 -170 30 0 30 0 0 155 0 155 40 0 40 0 0 -50 c0 -32 4 -50 12 -50 9 0 9 -3 0 -12 -16 -16 -15 -55 1 -61 10 -4 9 -6 0 -6 -9 -1 -13 -21 -13 -66 l0 -65 30 0 c30 0 30 0 30 58 0 32 -5 63 -12 70 -9 9 -9 12 0 12 15 0 16 42 1 57 -8 8 -8 13 0 17 6 4 11 31 11 61 0 44 3 55 20 60 10 3 39 28 63 55 45 50 72 116 65 161 -3 21 7 29 77 63 133 65 230 181 243 292 8 71 2 74 -169 74 l-149 0 0 25 c0 38 -27 95 -44 95 -9 0 -13 6 -10 13 7 18 -20 39 -40 31 -21 -8 -21 -43 2 -52 9 -4 18 -16 20 -27 1 -11 5 -35 8 -52 l7 -33 -123 0 -122 0 6 33 c13 64 12 72 -11 75 -25 4 -53 -40 -53 -83 0 -14 -4 -25 -10 -25 -14 0 -12 35 4 74 29 69 114 108 191 86 41 -11 48 -11 63 4 14 14 14 18 2 30 -20 18 -76 36 -114 36 -17 0 -53 -11 -81 -24z m565 -281 c0 -33 -47 -112 -92 -157 -27 -26 -78 -61 -116 -78 -129 -60 -117 -49 -118 -115 0 -72 -17 -108 -67 -149 -35 -28 -46 -31 -107 -31 -61 0 -72 3 -107 31 -52 42 -68 77 -68 153 l0 64 -36 12 c-139 49 -235 134 -273 243 l-15 42 499 0 c439 0 500 -2 500 -15z"/>
<path d="M920 929 c-29 -37 -31 -42 -17 -56 20 -21 39 -12 72 31 53 69 0 93 -55 25z"/>
<path d="M854 870 c-5 -5 -37 -23 -71 -40 -46 -22 -63 -36 -63 -51 0 -42 46 -35 135 22 25 16 45 35 45 43 0 19 -34 38 -46 26z"/>
<path d="M400 691 c0 -27 24 -38 89 -43 42 -2 56 1 64 14 19 28 -6 42 -83 46 -65 4 -70 3 -70 -17z"/>
<path d="M577 693 c-13 -12 -7 -41 10 -47 21 -8 48 17 40 38 -6 16 -38 22 -50 9z"/>
<path d="M234 1275 c-8 -20 3 -33 42 -50 40 -17 64 -11 64 16 0 35 -94 66 -106 34z"/>
<path d="M890 1246 c-20 -6 -36 -19 -38 -30 -6 -31 12 -39 55 -26 41 14 54 26 46 46 -7 20 -25 23 -63 10z"/>
<path d="M524 1215 c-4 -9 0 -23 8 -31 20 -20 50 -7 46 20 -4 26 -45 35 -54 11z"/>
<path d="M2794 789 c-16 -17 -19 -41 -22 -155 l-4 -135 -33 35 c-41 45 -77 48 -102 9 -14 -21 -18 -48 -18 -125 0 -54 -3 -98 -7 -98 -8 0 -38 129 -38 164 0 24 -23 56 -40 56 -4 0 -18 -9 -31 -19 -21 -17 -24 -30 -29 -112 l-6 -94 -14 45 c-7 25 -16 83 -19 130 -5 65 -10 85 -21 88 -24 4 -50 -20 -64 -62 -12 -34 -14 -37 -20 -18 -9 27 -62 72 -86 72 -10 0 -25 -7 -33 -15 -14 -13 -19 -13 -44 0 -36 19 -57 19 -93 0 -60 -31 -91 -149 -61 -228 26 -68 106 -99 159 -61 20 14 24 14 44 0 12 -9 35 -16 51 -16 l29 0 -8 125 c-4 69 -4 125 -1 125 3 0 15 -16 28 -36 15 -25 23 -56 26 -102 3 -56 8 -71 29 -89 29 -27 74 -31 74 -7 0 14 2 14 22 0 33 -23 84 -20 102 5 l14 21 21 -21 c27 -27 82 -28 104 -3 14 15 17 41 17 128 l1 109 24 -40 c18 -29 25 -54 25 -93 0 -66 12 -90 55 -108 46 -19 55 -18 55 7 l0 20 26 -20 c36 -28 70 -26 99 5 29 32 39 76 33 151 l-5 56 25 -42 c33 -57 52 -39 22 20 -27 54 -49 79 -67 79 -8 0 -27 10 -43 21 -54 41 -117 -5 -94 -69 7 -21 16 -27 39 -27 28 -1 30 -4 37 -50 9 -62 -6 -127 -28 -118 -43 16 -63 129 -64 361 l0 152 -23 0 c-13 0 -32 -9 -43 -21z m-634 -269 c17 -17 20 -33 20 -101 0 -116 -25 -149 -69 -93 -26 32 -29 126 -7 179 17 40 28 43 56 15z m765 -19 c-9 -16 -25 -3 -18 15 4 10 9 12 15 6 6 -6 7 -15 3 -21z"/>
<path d="M1774 658 c-4 -6 -2 -14 5 -16 9 -3 7 -10 -6 -24 -16 -18 -18 -38 -16 -182 2 -183 25 -377 48 -412 9 -14 25 -24 39 -24 l23 0 -4 283 c-3 155 -1 292 4 304 l8 22 50 -29 c28 -17 58 -36 68 -43 14 -10 19 -9 27 3 15 23 12 37 -12 65 -42 47 -213 87 -234 53z"/>
</g>


</svg>