<!DOCTYPE svg PUBLIC "-//W3C//DTD SVG 20010904//EN" "http://www.w3.org/TR/2001/REC-SVG-20010904/DTD/svg10.dtd">
<svg version="1.0" xmlns="http://www.w3.org/2000/svg" width="40px" height="40px" viewBox="0 0 2000 2000" preserveAspectRatio="xMidYMid meet">
<g id="layer101" fill="#fff" stroke="none">
 <path d="M1210 1644 c-77 -19 -262 -114 -345 -176 -155 -117 -345 -330 -429 -481 -65 -118 -89 -201 -90 -309 l-1 -98 120 -120 c108 -108 123 -120 155 -120 19 0 43 6 52 13 9 7 53 82 97 166 100 190 103 209 34 282 l-47 50 26 52 c39 78 137 188 234 260 118 89 124 90 189 27 80 -74 100 -72 278 32 77 45 148 91 159 102 10 11 18 35 18 54 0 31 -13 48 -107 144 -60 61 -120 116 -135 124 -34 18 -136 17 -208 -2z m291 -141 c79 -77 109 -113 107 -127 -4 -24 -268 -186 -304 -186 -13 0 -42 20 -72 50 -40 40 -57 50 -84 50 -95 0 -339 -216 -417 -367 -33 -66 -28 -96 24 -152 25 -26 45 -57 44 -67 0 -10 -35 -84 -78 -164 -55 -103 -83 -146 -97 -148 -13 -2 -52 30 -127 106 l-107 109 0 60 c0 110 62 263 165 408 72 102 258 289 356 360 149 107 308 173 422 174 l58 1 110 -107z"/>
 </g>

</svg>